<svg width="1024" height="320" viewBox="0 0 1024 320" fill="none" xmlns="http://www.w3.org/2000/svg">
  <defs>
    <linearGradient id="bg" x1="30" y1="20" x2="300" y2="300" gradientUnits="userSpaceOnUse">
      <stop stop-color="#B984FF"/>
      <stop offset="1" stop-color="#6C1FE0"/>
    </linearGradient>
    <linearGradient id="word" x1="340" y1="160" x2="980" y2="160" gradientUnits="userSpaceOnUse">
      <stop stop-color="#FFFFFF"/>
      <stop offset="0.62" stop-color="#A76BFF"/>
      <stop offset="1" stop-color="#FFFFFF"/>
    </linearGradient>
    <linearGradient id="gemA" x1="170" y1="82" x2="220" y2="160" gradientUnits="userSpaceOnUse">
      <stop stop-color="#E2CAFF"/>
      <stop offset="1" stop-color="#9F5BFF"/>
    </linearGradient>
  </defs>
  <rect x="0" y="0" width="1024" height="320" rx="40" fill="#18181B"/>
  <rect x="38" y="36" width="248" height="248" rx="62" fill="url(#bg)"/>
  <rect x="84" y="82" width="156" height="156" rx="40" fill="#F5F2FA"/>

  <path d="M162 108L204 168H120L162 108Z" fill="url(#gemA)"/>
  <path d="M162 108V168L120 168L162 108Z" fill="#CBA5FF"/>
  <path d="M162 108L204 168H162V108Z" fill="#8D43F2"/>
  <path d="M120 168H162V236L120 168Z" fill="#8F4AF6"/>
  <path d="M162 168H204L162 236V168Z" fill="#5C16C5"/>

  <circle cx="108" cy="112" r="7" fill="#9147FF"/>
  <rect x="123" y="104" width="48" height="12" rx="6" fill="#9147FF"/>
  <rect x="123" y="126" width="36" height="12" rx="6" fill="#9147FF"/>

  <text x="330" y="198" fill="url(#word)" font-family="Segoe UI, sans-serif" font-size="102" font-weight="700">TwitchGrabBits</text>
</svg>
